# WaveFront *.obj file (generated by Autodesk ATF)

mtllib c0b7f211-ce72-4508-9a5c-930addd2e3f1.zip.mtl

g Body1

v 0.000000 0.000000 0.000000
v 0.000000 -0.000000 -15.000000
v 450.000000 -0.000000 -15.000000
v 450.000000 0.000000 0.000000
v 0.000000 191.339746 -15.000000
v 450.000000 191.339746 -15.000000
v 0.000000 287.009619 -180.705081
v 450.000000 287.009619 -180.705081
v 0.000000 300.000000 -173.205081
v 450.000000 300.000000 -173.205081
v 0.000000 200.000000 0.000000
v 450.000000 200.000000 0.000000
vt -1.500000 -45.000000 0.000000
vt -0.000000 -45.000000 0.000000
vt -1.500000 0.000000 0.000000
vt -0.000000 0.000000 0.000000
vt 45.000000 0.000000 0.000000
vt -0.000000 0.000000 0.000000
vt 45.000000 -19.133975 0.000000
vt -0.000000 -19.133975 0.000000
vt -19.133975 -45.000000 0.000000
vt -0.000000 -45.000000 0.000000
vt -19.133975 0.000000 0.000000
vt -0.000000 0.000000 0.000000
vt 45.000000 0.000000 0.000000
vt -0.000000 0.000000 0.000000
vt 45.000000 -1.500000 0.000000
vt -0.000000 -1.500000 0.000000
vt -20.000000 -45.000000 0.000000
vt -0.000000 -45.000000 0.000000
vt -20.000000 0.000000 0.000000
vt -0.000000 0.000000 0.000000
vt -45.000000 0.000000 0.000000
vt -0.000000 0.000000 0.000000
vt -45.000000 20.000000 0.000000
vt -0.000000 20.000000 0.000000
vt 1.500000 -0.000000 0.000000
vt 1.500000 19.133975 0.000000
vt -0.000000 0.000000 0.000000
vt -0.000000 20.000000 0.000000
vt 17.320508 30.000000 0.000000
vt 18.070508 28.700962 0.000000
vt -1.500000 -0.000000 0.000000
vt 0.000000 0.000000 0.000000
vt -1.500000 19.133975 0.000000
vt 0.000000 20.000000 0.000000
vt -17.320508 30.000000 0.000000
vt -18.070508 28.700962 0.000000
vn 0.000000 -0.100000 0.000000
vn 0.000000 -0.100000 0.000000
vn 0.000000 -0.100000 0.000000
vn 0.000000 -0.100000 0.000000
vn -0.000000 0.000000 -0.100000
vn -0.000000 0.000000 -0.100000
vn -0.000000 0.000000 -0.100000
vn -0.000000 0.000000 -0.100000
vn 0.000000 -0.086603 -0.050000
vn 0.000000 -0.086603 -0.050000
vn 0.000000 -0.086603 -0.050000
vn 0.000000 -0.086603 -0.050000
vn -0.000000 0.050000 -0.086603
vn -0.000000 0.050000 -0.086603
vn -0.000000 0.050000 -0.086603
vn -0.000000 0.050000 -0.086603
vn 0.000000 0.086603 0.050000
vn 0.000000 0.086603 0.050000
vn 0.000000 0.086603 0.050000
vn 0.000000 0.086603 0.050000
vn 0.000000 0.000000 0.100000
vn 0.000000 0.000000 0.100000
vn 0.000000 0.000000 0.100000
vn 0.000000 0.000000 0.100000
vn 0.100000 0.000000 0.000000
vn 0.100000 0.000000 0.000000
vn 0.100000 0.000000 0.000000
vn 0.100000 0.000000 0.000000
vn 0.100000 0.000000 0.000000
vn 0.100000 0.000000 0.000000
vn -0.100000 0.000000 0.000000
vn -0.100000 0.000000 0.000000
vn -0.100000 0.000000 0.000000
vn -0.100000 0.000000 0.000000
vn -0.100000 0.000000 0.000000
vn -0.100000 0.000000 0.000000
usemtl Steel_-_Satin
f 1/1/1 2/2/2 4/3/3
f 4/3/3 2/2/2 3/4/4
f 5/5/5 6/6/6 2/7/7
f 2/7/7 6/6/6 3/8/8
f 5/9/9 7/10/10 6/11/11
f 6/11/11 7/10/10 8/12/12
f 9/13/13 10/14/14 7/15/15
f 7/15/15 10/14/14 8/16/16
f 9/17/17 11/18/18 10/19/19
f 10/19/19 11/18/18 12/20/20
f 1/21/21 4/22/22 11/23/23
f 11/23/23 4/22/22 12/24/24
f 3/25/25 6/26/26 4/27/27
f 4/27/27 6/26/26 12/28/28
f 12/28/28 6/26/26 10/29/29
f 10/29/29 6/26/26 8/30/30
f 2/31/31 1/32/32 5/33/33
f 5/33/33 1/32/32 11/34/34
f 5/33/33 11/34/34 9/35/35
f 9/35/35 7/36/36 5/33/33
# 12 vertices
# 36 texture params
# 36 normals
# 20 facets

# 1 groups
