# WaveFront *.obj file (generated by Autodesk ATF)

mtllib 1bd11060-77d3-40d1-b9bd-d0a24d98488a.zip.mtl

g Body1

v 250.000000 -225.000000 0.000000
v 250.000000 225.000000 0.000000
v 250.000000 225.000000 15.000000
v 250.000000 -225.000000 15.000000
v -250.000000 225.000000 0.000000
v -250.000000 225.000000 15.000000
v -250.000000 -225.000000 0.000000
v -250.000000 -225.000000 15.000000
vt 1.500000 45.000000 0.000000
vt -0.000000 45.000000 0.000000
vt 1.500000 0.000000 0.000000
vt -0.000000 0.000000 0.000000
vt -1.500000 0.000000 0.000000
vt -0.000000 0.000000 0.000000
vt -1.500000 50.000000 0.000000
vt -0.000000 50.000000 0.000000
vt -1.500000 0.000000 0.000000
vt -0.000000 0.000000 0.000000
vt -1.500000 45.000000 0.000000
vt -0.000000 45.000000 0.000000
vt 1.500000 50.000000 0.000000
vt -0.000000 50.000000 0.000000
vt 1.500000 0.000000 0.000000
vt -0.000000 0.000000 0.000000
vt 25.000000 22.500000 0.000000
vt -25.000000 22.500000 0.000000
vt 25.000000 -22.500000 0.000000
vt -25.000000 -22.500000 0.000000
vt -25.000000 -22.500000 0.000000
vt 25.000000 -22.500000 0.000000
vt -25.000000 22.500000 0.000000
vt 25.000000 22.500000 0.000000
vn 0.100000 0.000000 0.000000
vn 0.100000 0.000000 0.000000
vn 0.100000 0.000000 0.000000
vn 0.100000 0.000000 0.000000
vn -0.000000 0.100000 -0.000000
vn -0.000000 0.100000 -0.000000
vn -0.000000 0.100000 -0.000000
vn -0.000000 0.100000 -0.000000
vn -0.100000 0.000000 0.000000
vn -0.100000 0.000000 0.000000
vn -0.100000 0.000000 0.000000
vn -0.100000 0.000000 0.000000
vn 0.000000 -0.100000 0.000000
vn 0.000000 -0.100000 0.000000
vn 0.000000 -0.100000 0.000000
vn 0.000000 -0.100000 0.000000
vn 0.000000 0.000000 0.100000
vn 0.000000 0.000000 0.100000
vn 0.000000 0.000000 0.100000
vn 0.000000 0.000000 0.100000
vn 0.000000 0.000000 -0.100000
vn 0.000000 0.000000 -0.100000
vn 0.000000 0.000000 -0.100000
vn 0.000000 0.000000 -0.100000
usemtl Steel_-_Satin
f 2/1/1 3/2/2 1/3/3
f 1/3/3 3/2/2 4/4/4
f 5/5/5 6/6/6 2/7/7
f 2/7/7 6/6/6 3/8/8
f 7/9/9 8/10/10 5/11/11
f 5/11/11 8/10/10 6/12/12
f 1/13/13 4/14/14 7/15/15
f 7/15/15 4/14/14 8/16/16
f 3/17/17 6/18/18 4/19/19
f 4/19/19 6/18/18 8/20/20
f 1/21/21 7/22/22 2/23/23
f 2/23/23 7/22/22 5/24/24
# 8 vertices
# 24 texture params
# 24 normals
# 12 facets

# 1 groups
